<svg width="1020" height="920" viewBox="0 0 1020 920" xmlns="http://www.w3.org/2000/svg" style="background:#12122a;font-family:Arial,sans-serif;">
<defs>
  <marker id="ag" viewBox="0 0 10 10" refX="8" refY="5" markerWidth="7" markerHeight="7" orient="auto-start-reverse">
    <path d="M2 1L8 5L2 9" fill="none" stroke="#1D9E75" stroke-width="1.5" stroke-linecap="round" stroke-linejoin="round"/>
  </marker>
  <marker id="ar" viewBox="0 0 10 10" refX="8" refY="5" markerWidth="7" markerHeight="7" orient="auto-start-reverse">
    <path d="M2 1L8 5L2 9" fill="none" stroke="#E24B4A" stroke-width="1.8" stroke-linecap="round" stroke-linejoin="round"/>
  </marker>
  <marker id="ab" viewBox="0 0 10 10" refX="8" refY="5" markerWidth="7" markerHeight="7" orient="auto-start-reverse">
    <path d="M2 1L8 5L2 9" fill="none" stroke="#378ADD" stroke-width="1.5" stroke-linecap="round" stroke-linejoin="round"/>
  </marker>
  <marker id="ao" viewBox="0 0 10 10" refX="8" refY="5" markerWidth="7" markerHeight="7" orient="auto-start-reverse">
    <path d="M2 1L8 5L2 9" fill="none" stroke="#EF9F27" stroke-width="1.5" stroke-linecap="round" stroke-linejoin="round"/>
  </marker>
</defs>

<!-- ══════════════════════════════════════════════════════ -->
<!-- ROW 1: DBBD SERVER  cx=480  y=36..108 -->
<!-- ══════════════════════════════════════════════════════ -->
<rect x="320" y="36" width="320" height="72" rx="14" fill="#3B2FA0" stroke="#7F77DD" stroke-width="2"/>
<text x="480" y="65" text-anchor="middle" fill="#EEEDFE" font-size="18" font-weight="bold">DBBD Server</text>
<text x="480" y="88" text-anchor="middle" fill="#AFA9EC" font-size="13">Flask · Dashboard · Alert engine</text>

<!-- Server → Bait Gen -->
<line x1="480" y1="108" x2="480" y2="196" stroke="#1D9E75" stroke-width="2" marker-end="url(#ag)"/>

<!-- ══════════════════════════════════════════════════════ -->
<!-- ROW 2: BAIT GENERATION API  y=198..270 -->
<!-- ══════════════════════════════════════════════════════ -->
<rect x="310" y="198" width="340" height="72" rx="14" fill="#0F6E56" stroke="#1D9E75" stroke-width="2"/>
<text x="480" y="228" text-anchor="middle" fill="#E1F5EE" font-size="18" font-weight="bold">Bait Generation API</text>
<text x="480" y="251" text-anchor="middle" fill="#9FE1CB" font-size="13">Creates and deploys canary tokens</text>

<!-- ══════════════════════════════════════════════════════ -->
<!-- FAN ARROWS: Bait Gen → 7 baits                       -->
<!-- 7 boxes w=108 gap=18 → total=7*108+6*18=864          -->
<!-- start=48, centres: 102,228,354,480,606,732,858       -->
<!-- ══════════════════════════════════════════════════════ -->
<line x1="432" y1="270" x2="102" y2="368" stroke="#5DCAA5" stroke-width="1.5" marker-end="url(#ag)"/>
<line x1="448" y1="270" x2="228" y2="368" stroke="#5DCAA5" stroke-width="1.5" marker-end="url(#ag)"/>
<line x1="464" y1="270" x2="354" y2="368" stroke="#5DCAA5" stroke-width="1.5" marker-end="url(#ag)"/>
<line x1="480" y1="270" x2="480" y2="368" stroke="#5DCAA5" stroke-width="1.5" marker-end="url(#ag)"/>
<line x1="496" y1="270" x2="606" y2="368" stroke="#5DCAA5" stroke-width="1.5" marker-end="url(#ag)"/>
<line x1="512" y1="270" x2="732" y2="368" stroke="#5DCAA5" stroke-width="1.5" marker-end="url(#ag)"/>
<line x1="528" y1="270" x2="858" y2="368" stroke="#5DCAA5" stroke-width="1.5" marker-end="url(#ag)"/>

<!-- ══════════════════════════════════════════════════════ -->
<!-- ROW 3: 7 BAIT BOXES  y=370..434 -->
<!-- ══════════════════════════════════════════════════════ -->

<!-- DOCX cx=102 -->
<rect x="48" y="370" width="108" height="64" rx="10" fill="#085041" stroke="#1D9E75" stroke-width="1.5"/>
<text x="102" y="398" text-anchor="middle" fill="#E1F5EE" font-size="14" font-weight="bold">DOCX</text>
<text x="102" y="417" text-anchor="middle" fill="#9FE1CB" font-size="11">Word lure</text>

<!-- XLSX cx=228 -->
<rect x="174" y="370" width="108" height="64" rx="10" fill="#085041" stroke="#1D9E75" stroke-width="1.5"/>
<text x="228" y="398" text-anchor="middle" fill="#E1F5EE" font-size="14" font-weight="bold">XLSX</text>
<text x="228" y="417" text-anchor="middle" fill="#9FE1CB" font-size="11">Excel lure</text>

<!-- PPTX cx=354 -->
<rect x="300" y="370" width="108" height="64" rx="10" fill="#085041" stroke="#1D9E75" stroke-width="1.5"/>
<text x="354" y="398" text-anchor="middle" fill="#E1F5EE" font-size="14" font-weight="bold">PPTX</text>
<text x="354" y="417" text-anchor="middle" fill="#9FE1CB" font-size="11">Slides lure</text>

<!-- QR Code cx=480 -->
<rect x="426" y="370" width="108" height="64" rx="10" fill="#085041" stroke="#1D9E75" stroke-width="1.5"/>
<text x="480" y="398" text-anchor="middle" fill="#E1F5EE" font-size="14" font-weight="bold">QR Code</text>
<text x="480" y="417" text-anchor="middle" fill="#9FE1CB" font-size="11">URL token</text>

<!-- PDF cx=606 -->
<rect x="552" y="370" width="108" height="64" rx="10" fill="#085041" stroke="#1D9E75" stroke-width="1.5"/>
<text x="606" y="398" text-anchor="middle" fill="#E1F5EE" font-size="14" font-weight="bold">PDF</text>
<text x="606" y="417" text-anchor="middle" fill="#9FE1CB" font-size="11">Doc lure</text>

<!-- FIM cx=732 -->
<rect x="678" y="370" width="108" height="64" rx="10" fill="#085041" stroke="#1D9E75" stroke-width="1.5"/>
<text x="732" y="393" text-anchor="middle" fill="#E1F5EE" font-size="14" font-weight="bold">FIM</text>
<text x="732" y="409" text-anchor="middle" fill="#9FE1CB" font-size="11">Folder Integrity</text>
<text x="732" y="425" text-anchor="middle" fill="#9FE1CB" font-size="11">Monitoring</text>

<!-- Domain cx=858 -->
<rect x="804" y="370" width="108" height="64" rx="10" fill="#085041" stroke="#1D9E75" stroke-width="1.5"/>
<text x="858" y="393" text-anchor="middle" fill="#E1F5EE" font-size="14" font-weight="bold">Domain</text>
<text x="858" y="409" text-anchor="middle" fill="#9FE1CB" font-size="11">Token</text>
<text x="858" y="425" text-anchor="middle" fill="#9FE1CB" font-size="11">DNS canary</text>

<!-- ══════════════════════════════════════════════════════ -->
<!-- ARROWS: each bait → Attacker (cx=480 top=546)        -->
<!-- ══════════════════════════════════════════════════════ -->
<line x1="102" y1="434" x2="360" y2="544" stroke="#5DCAA5" stroke-width="1.4" stroke-dasharray="6 3" marker-end="url(#ag)"/>
<line x1="228" y1="434" x2="395" y2="544" stroke="#5DCAA5" stroke-width="1.4" stroke-dasharray="6 3" marker-end="url(#ag)"/>
<line x1="354" y1="434" x2="430" y2="544" stroke="#5DCAA5" stroke-width="1.4" stroke-dasharray="6 3" marker-end="url(#ag)"/>
<line x1="480" y1="434" x2="480" y2="544" stroke="#5DCAA5" stroke-width="1.4" stroke-dasharray="6 3" marker-end="url(#ag)"/>
<line x1="606" y1="434" x2="530" y2="544" stroke="#5DCAA5" stroke-width="1.4" stroke-dasharray="6 3" marker-end="url(#ag)"/>
<line x1="732" y1="434" x2="568" y2="544" stroke="#5DCAA5" stroke-width="1.4" stroke-dasharray="6 3" marker-end="url(#ag)"/>
<line x1="858" y1="434" x2="606" y2="544" stroke="#5DCAA5" stroke-width="1.4" stroke-dasharray="6 3" marker-end="url(#ag)"/>

<!-- ══════════════════════════════════════════════════════ -->
<!-- ROW 4: ATTACKER / INSIDER  y=546..622 -->
<!-- ══════════════════════════════════════════════════════ -->
<rect x="285" y="546" width="390" height="76" rx="14" fill="#7A1F1F" stroke="#E24B4A" stroke-width="2.2"/>
<text x="480" y="578" text-anchor="middle" fill="#FCEBEB" font-size="18" font-weight="bold">Attacker / Insider</text>
<text x="480" y="601" text-anchor="middle" fill="#F09595" font-size="13">Opens bait asset · triggers token</text>

<!-- Red arrow: Attacker → Alert Engine -->
<line x1="480" y1="622" x2="480" y2="714" stroke="#E24B4A" stroke-width="2.5" marker-end="url(#ar)"/>
<rect x="492" y="648" width="158" height="24" rx="5" fill="#12122a"/>
<text x="571" y="665" text-anchor="middle" fill="#E24B4A" font-size="12" font-weight="bold">HTTP callback triggered</text>

<!-- ══════════════════════════════════════════════════════ -->
<!-- ROW 5: ALERT ENGINE  y=716..792 -->
<!-- ══════════════════════════════════════════════════════ -->
<rect x="285" y="716" width="390" height="76" rx="14" fill="#0C447C" stroke="#378ADD" stroke-width="2"/>
<text x="480" y="748" text-anchor="middle" fill="#E6F1FB" font-size="18" font-weight="bold">Alert Engine</text>
<text x="480" y="772" text-anchor="middle" fill="#85B7EB" font-size="13">Classify · Deduplicate · Log forensics</text>

<!-- Blue curved arrow: Alert Engine → DBBD Server (left side, clear of DOCX box) -->
<path d="M285 754 Q18 754 18 72 Q18 36 318 54" fill="none" stroke="#378ADD" stroke-width="2" marker-end="url(#ab)"/>
<text x="6" y="440" text-anchor="middle" fill="#378ADD" font-size="12" font-weight="bold" transform="rotate(-90,6,440)">Alert to server dashboard</text>

<!-- Email Notification box: right of DBBD Server -->
<!-- Orange arrow: DBBD Server right edge (640,72) → Email box left (680,72) -->
<line x1="640" y1="72" x2="748" y2="72" stroke="#EF9F27" stroke-width="2" marker-end="url(#ao)"/>
<rect x="643" y="50" width="100" height="20" rx="4" fill="#12122a"/>
<text x="693" y="63" text-anchor="middle" fill="#EF9F27" font-size="12" font-weight="bold">SMTP alert</text>

<rect x="750" y="36" width="260" height="72" rx="14" fill="#633806" stroke="#EF9F27" stroke-width="2"/>
<text x="880" y="64" text-anchor="middle" fill="#FAEEDA" font-size="16" font-weight="bold">Email Notification</text>
<text x="880" y="87" text-anchor="middle" fill="#FAC775" font-size="11">SMTP alert to admins / SOC team</text>

<!-- ══════════════════════════════════════════════════════ -->
<!-- LEGEND  y=978..1010 -->
<!-- ══════════════════════════════════════════════════════ -->
<rect x="48" y="878" width="864" height="34" rx="8" fill="#0d0d1f" stroke="#2a2a4a" stroke-width="1"/>
<line x1="68" y1="996" x2="100" y2="996" stroke="#5DCAA5" stroke-width="1.8"/>
<text x="107" y="900" fill="#9FE1CB" font-size="11">Deploy bait</text>
<line x1="220" y1="996" x2="252" y2="996" stroke="#5DCAA5" stroke-width="1.8" stroke-dasharray="5 3"/>
<text x="259" y="900" fill="#9FE1CB" font-size="11">Bait accessed</text>
<line x1="390" y1="996" x2="422" y2="996" stroke="#E24B4A" stroke-width="2.2"/>
<text x="429" y="900" fill="#F09595" font-size="11">Trigger / alert</text>
<line x1="560" y1="996" x2="592" y2="996" stroke="#378ADD" stroke-width="1.8"/>
<text x="599" y="900" fill="#85B7EB" font-size="11">Dashboard feedback</text>
<line x1="760" y1="996" x2="792" y2="996" stroke="#EF9F27" stroke-width="1.8"/>
<text x="799" y="900" fill="#FAC775" font-size="11">Email alert</text>

</svg>